<svg xmlns="http://www.w3.org/2000/svg" width="64" height="64" viewBox="0 0 16 18" style="image-rendering:pixelated">
  <!-- Shield outline - cyan/emerald gradient pixels -->
  <!-- Top row -->
  <rect x="5" y="0" width="1" height="1" fill="#0a2a2a"/>
  <rect x="6" y="0" width="1" height="1" fill="#22d3ee"/>
  <rect x="7" y="0" width="2" height="1" fill="#10b981"/>
  <rect x="9" y="0" width="1" height="1" fill="#22d3ee"/>
  <rect x="10" y="0" width="1" height="1" fill="#0a2a2a"/>
  <!-- Row 1 -->
  <rect x="4" y="1" width="1" height="1" fill="#0a2a2a"/>
  <rect x="5" y="1" width="1" height="1" fill="#22d3ee"/>
  <rect x="6" y="1" width="1" height="1" fill="#34d8e0"/>
  <rect x="7" y="1" width="2" height="1" fill="#10b981"/>
  <rect x="9" y="1" width="1" height="1" fill="#34d8e0"/>
  <rect x="10" y="1" width="1" height="1" fill="#22d3ee"/>
  <rect x="11" y="1" width="1" height="1" fill="#0a2a2a"/>
  <!-- Row 2 -->
  <rect x="3" y="2" width="1" height="1" fill="#0a2a2a"/>
  <rect x="4" y="2" width="1" height="1" fill="#22d3ee"/>
  <rect x="5" y="2" width="1" height="1" fill="#0d3b4a"/>
  <rect x="6" y="2" width="4" height="1" fill="#0c2e3d"/>
  <rect x="10" y="2" width="1" height="1" fill="#0d3b4a"/>
  <rect x="11" y="2" width="1" height="1" fill="#10b981"/>
  <rect x="12" y="2" width="1" height="1" fill="#0a2a2a"/>
  <!-- Row 3-4 -->
  <rect x="2" y="3" width="1" height="1" fill="#0a2a2a"/>
  <rect x="3" y="3" width="1" height="1" fill="#22d3ee"/>
  <rect x="4" y="3" width="8" height="1" fill="#0c2634"/>
  <rect x="12" y="3" width="1" height="1" fill="#10b981"/>
  <rect x="13" y="3" width="1" height="1" fill="#0a2a2a"/>
  <rect x="2" y="4" width="1" height="1" fill="#22d3ee"/>
  <rect x="3" y="4" width="1" height="1" fill="#10b981"/>
  <rect x="4" y="4" width="8" height="1" fill="#0c2634"/>
  <rect x="12" y="4" width="1" height="1" fill="#22d3ee"/>
  <rect x="13" y="4" width="1" height="1" fill="#10b981"/>
  <!-- Row 5-11 (main body) -->
  <rect x="1" y="5" width="1" height="1" fill="#22d3ee"/>
  <rect x="2" y="5" width="1" height="1" fill="#10b981"/>
  <rect x="3" y="5" width="10" height="1" fill="#0c2634"/>
  <rect x="13" y="5" width="1" height="1" fill="#22d3ee"/>
  <rect x="14" y="5" width="1" height="1" fill="#0a2a2a"/>
  <rect x="1" y="6" width="1" height="1" fill="#10b981"/>
  <rect x="2" y="6" width="1" height="1" fill="#22d3ee"/>
  <rect x="3" y="6" width="10" height="1" fill="#0c2634"/>
  <rect x="13" y="6" width="1" height="1" fill="#10b981"/>
  <rect x="14" y="6" width="1" height="1" fill="#0a2a2a"/>
  <rect x="1" y="7" width="1" height="1" fill="#22d3ee"/>
  <rect x="2" y="7" width="1" height="1" fill="#10b981"/>
  <rect x="3" y="7" width="10" height="1" fill="#0c2634"/>
  <rect x="13" y="7" width="1" height="1" fill="#22d3ee"/>
  <rect x="14" y="7" width="1" height="1" fill="#0a2a2a"/>
  <rect x="1" y="8" width="1" height="1" fill="#10b981"/>
  <rect x="2" y="8" width="1" height="1" fill="#22d3ee"/>
  <rect x="3" y="8" width="10" height="1" fill="#0c2634"/>
  <rect x="13" y="8" width="1" height="1" fill="#10b981"/>
  <rect x="14" y="8" width="1" height="1" fill="#0a2a2a"/>
  <rect x="1" y="9" width="1" height="1" fill="#22d3ee"/>
  <rect x="2" y="9" width="1" height="1" fill="#10b981"/>
  <rect x="3" y="9" width="10" height="1" fill="#0c2634"/>
  <rect x="13" y="9" width="1" height="1" fill="#22d3ee"/>
  <rect x="14" y="9" width="1" height="1" fill="#0a2a2a"/>
  <rect x="2" y="10" width="1" height="1" fill="#22d3ee"/>
  <rect x="3" y="10" width="1" height="1" fill="#10b981"/>
  <rect x="4" y="10" width="8" height="1" fill="#0c2634"/>
  <rect x="12" y="10" width="1" height="1" fill="#22d3ee"/>
  <rect x="13" y="10" width="1" height="1" fill="#0a2a2a"/>
  <rect x="2" y="11" width="1" height="1" fill="#0a2a2a"/>
  <rect x="3" y="11" width="1" height="1" fill="#22d3ee"/>
  <rect x="4" y="11" width="8" height="1" fill="#0c2634"/>
  <rect x="12" y="11" width="1" height="1" fill="#10b981"/>
  <rect x="13" y="11" width="1" height="1" fill="#0a2a2a"/>
  <!-- Bottom taper -->
  <rect x="3" y="12" width="1" height="1" fill="#0a2a2a"/>
  <rect x="4" y="12" width="1" height="1" fill="#22d3ee"/>
  <rect x="5" y="12" width="6" height="1" fill="#0c2634"/>
  <rect x="11" y="12" width="1" height="1" fill="#10b981"/>
  <rect x="12" y="12" width="1" height="1" fill="#0a2a2a"/>
  <rect x="4" y="13" width="1" height="1" fill="#0a2a2a"/>
  <rect x="5" y="13" width="1" height="1" fill="#10b981"/>
  <rect x="6" y="13" width="4" height="1" fill="#0c2634"/>
  <rect x="10" y="13" width="1" height="1" fill="#22d3ee"/>
  <rect x="11" y="13" width="1" height="1" fill="#0a2a2a"/>
  <rect x="5" y="14" width="1" height="1" fill="#0a2a2a"/>
  <rect x="6" y="14" width="1" height="1" fill="#22d3ee"/>
  <rect x="7" y="14" width="2" height="1" fill="#0c2634"/>
  <rect x="9" y="14" width="1" height="1" fill="#10b981"/>
  <rect x="10" y="14" width="1" height="1" fill="#0a2a2a"/>
  <rect x="6" y="15" width="1" height="1" fill="#0a2a2a"/>
  <rect x="7" y="15" width="1" height="1" fill="#22d3ee"/>
  <rect x="8" y="15" width="1" height="1" fill="#10b981"/>
  <rect x="9" y="15" width="1" height="1" fill="#0a2a2a"/>
  <rect x="7" y="16" width="1" height="1" fill="#0a2a2a"/>
  <rect x="8" y="16" width="1" height="1" fill="#22d3ee"/>
  <rect x="9" y="16" width="1" height="1" fill="#0a2a2a"/>
  <!-- Checkmark - green -->
  <rect x="10" y="5" width="1" height="1" fill="#10b981"/>
  <rect x="9" y="6" width="1" height="1" fill="#10b981"/>
  <rect x="10" y="6" width="1" height="1" fill="#0eda8e"/>
  <rect x="11" y="6" width="1" height="1" fill="#10b981"/>
  <rect x="8" y="7" width="1" height="1" fill="#10b981"/>
  <rect x="9" y="7" width="1" height="1" fill="#0eda8e"/>
  <rect x="10" y="7" width="1" height="1" fill="#10b981"/>
  <rect x="4" y="8" width="1" height="1" fill="#10b981"/>
  <rect x="7" y="8" width="1" height="1" fill="#10b981"/>
  <rect x="8" y="8" width="1" height="1" fill="#0eda8e"/>
  <rect x="9" y="8" width="1" height="1" fill="#10b981"/>
  <rect x="4" y="9" width="1" height="1" fill="#10b981"/>
  <rect x="5" y="9" width="1" height="1" fill="#0eda8e"/>
  <rect x="6" y="9" width="1" height="1" fill="#10b981"/>
  <rect x="7" y="9" width="1" height="1" fill="#0eda8e"/>
  <rect x="8" y="9" width="1" height="1" fill="#10b981"/>
  <rect x="5" y="10" width="1" height="1" fill="#10b981"/>
  <rect x="6" y="10" width="1" height="1" fill="#0eda8e"/>
  <rect x="7" y="10" width="1" height="1" fill="#10b981"/>
  <rect x="6" y="11" width="1" height="1" fill="#10b981"/>
</svg>
